<?xml version="1.0" standalone="no"?>
<!DOCTYPE svg PUBLIC "-//W3C//DTD SVG 20010904//EN"
 "http://www.w3.org/TR/2001/REC-SVG-20010904/DTD/svg10.dtd">
<svg version="1.0" xmlns="http://www.w3.org/2000/svg"
 width="433.000000pt" height="529.000000pt" viewBox="0 0 433.000000 529.000000"
 preserveAspectRatio="xMidYMid meet">
<metadata>
Created by potrace 1.15, written by Peter Selinger 2001-2017
</metadata>
<g transform="translate(0.000000,529.000000) scale(0.100000,-0.100000)"
fill="#000000" stroke="none">
<path d="M1899 5131 c-237 -361 -313 -497 -388 -687 l-39 -98 -119 -51 c-436
-185 -773 -475 -1016 -877 -108 -177 -221 -461 -252 -633 -2 -16 -12 -70 -21
-120 -21 -121 -31 -322 -22 -475 25 -439 200 -883 485 -1232 130 -158 358
-355 526 -453 l67 -39 0 -104 c0 -117 -8 -104 117 -195 88 -64 106 -75 180
-103 59 -23 87 -27 218 -31 207 -7 316 15 670 137 50 17 126 37 171 45 166 29
305 65 425 111 164 62 227 60 381 -17 l76 -38 34 22 33 23 5 151 c3 83 7 153
10 155 493 380 801 953 837 1558 46 754 -284 1450 -895 1887 -217 155 -505
283 -760 338 l-84 18 -38 81 c-111 232 -306 494 -500 672 l-45 42 -56 -87z
m766 -780 c178 -43 426 -149 591 -252 191 -119 332 -240 479 -411 272 -316
438 -690 495 -1111 13 -101 13 -398 -1 -507 -52 -421 -234 -821 -519 -1139
-85 -95 -254 -251 -271 -251 -5 0 -8 27 -7 59 1 36 -4 66 -11 75 -11 13 -1 27
68 92 498 468 711 1163 566 1844 -43 205 -156 469 -278 652 -140 208 -342 408
-556 551 -166 110 -337 186 -571 256 -20 6 -31 23 -52 82 -15 41 -28 75 -28
77 0 4 16 2 95 -17z m-1209 -98 c-3 -21 -18 -61 -33 -89 -21 -40 -35 -54 -69
-68 -78 -32 -259 -140 -357 -214 -89 -68 -249 -216 -307 -287 -177 -214 -284
-403 -368 -647 -134 -390 -136 -852 -5 -1238 132 -390 396 -746 721 -975 l82
-57 0 -79 c0 -43 -4 -79 -8 -79 -4 0 -54 31 -110 69 -510 346 -840 886 -912
1490 -15 133 -13 399 5 527 84 602 414 1122 930 1468 105 70 372 203 434 215
2 1 0 -16 -3 -36z m15 -196 c29 -148 129 -360 217 -458 58 -65 168 -103 221
-76 66 33 93 231 50 359 -12 35 -32 84 -46 111 l-23 47 169 0 c94 0 172 -4
175 -9 3 -4 -4 -26 -15 -47 -45 -88 -59 -143 -59 -227 0 -84 22 -158 66 -224
l17 -27 22 81 c29 110 68 166 172 249 125 99 159 144 183 244 l16 64 56 -109
c73 -144 105 -228 128 -333 35 -159 20 -339 -42 -485 -28 -66 -75 -137 -92
-137 -7 0 -30 15 -52 33 -160 136 -407 328 -413 321 -4 -5 -36 -49 -71 -97
-54 -75 -61 -90 -49 -101 10 -10 253 -204 379 -303 15 -12 -81 -45 -205 -69
-158 -31 -201 -78 -220 -234 -2 -19 -4 -36 -4 -38 -1 -2 -19 7 -41 19 -69 39
-116 114 -126 203 -6 52 -9 56 -33 56 -53 1 -168 31 -228 60 -70 35 -159 112
-203 175 -151 219 -178 453 -88 759 22 75 107 276 117 276 3 0 13 -37 22 -83z
m1420 -257 c384 -194 691 -545 822 -940 71 -213 87 -323 83 -575 -3 -155 -8
-220 -24 -290 -74 -325 -215 -590 -441 -827 l-68 -70 -49 16 c-27 9 -92 34
-144 55 -95 39 -95 39 -190 149 -52 60 -113 131 -135 158 -45 54 -160 190
-339 403 -159 189 -152 178 -137 203 7 11 110 142 230 291 119 150 226 284
236 299 11 15 24 28 28 28 8 0 201 -150 369 -287 43 -35 79 -63 82 -63 7 0
146 164 146 172 0 3 -99 86 -220 183 -121 98 -220 182 -220 187 0 5 84 113
186 241 102 128 188 238 191 245 7 16 -166 194 -184 190 -6 -2 -51 -55 -100
-119 -170 -222 -208 -269 -211 -261 -1 5 6 29 17 54 38 90 54 191 48 316 -2
65 -12 142 -21 172 -8 30 -18 65 -22 78 -8 28 -5 28 67 -8z m-1639 -223 c-6
-144 13 -239 73 -365 l45 -95 -42 48 c-24 27 -63 72 -87 102 l-44 54 21 22 21
23 -37 46 c-20 26 -42 47 -48 48 -6 0 -21 -12 -35 -26 -13 -14 -40 -34 -59
-44 -47 -24 -130 -114 -130 -141 0 -11 14 -39 31 -61 l32 -39 23 22 c24 22 24
22 39 3 40 -51 58 -77 49 -72 -6 4 -11 -13 -12 -40 -1 -26 -7 -72 -13 -102
-10 -50 -17 -61 -89 -130 -63 -60 -88 -93 -122 -160 -23 -47 -44 -89 -45 -95
-32 -120 -66 -278 -81 -375 -6 -43 -7 -128 -2 -291 2 -59 -2 -84 -18 -115 -13
-27 -17 -46 -11 -60 18 -49 96 -73 106 -34 4 16 8 18 19 9 8 -6 14 -18 14 -26
0 -8 18 -21 39 -30 28 -11 40 -23 45 -42 15 -75 165 -166 241 -147 17 4 25 2
25 -7 0 -15 75 -90 107 -106 16 -8 23 -8 26 2 4 9 8 9 15 -2 5 -7 15 -10 21
-7 29 19 1 -24 -103 -153 -46 -56 -72 -79 -113 -98 l-53 -24 -37 28 c-56 43
-197 207 -268 313 -131 195 -227 442 -261 671 -22 152 -15 442 14 574 82 365
271 685 542 917 98 83 142 117 156 118 7 0 9 -37 6 -113z m2000 -182 c4 -5 8
-12 8 -15 0 -3 -88 -115 -195 -248 -107 -134 -195 -245 -195 -247 0 -1 33 -29
73 -61 194 -155 368 -297 371 -303 2 -3 -20 -34 -49 -69 l-54 -62 -222 176
c-158 126 -226 174 -235 168 -8 -5 -135 -162 -284 -349 -149 -187 -303 -380
-343 -430 -40 -49 -130 -162 -200 -250 -71 -88 -170 -212 -221 -275 l-93 -115
-162 -77 c-89 -42 -161 -73 -159 -68 2 4 29 41 60 82 66 84 362 467 553 714
72 93 175 225 230 294 55 69 113 144 130 167 16 23 66 89 109 145 164 212 226
295 226 300 0 3 -93 79 -207 169 -114 90 -219 175 -235 189 l-29 25 48 67 c26
37 52 68 56 68 5 0 109 -81 233 -180 123 -100 230 -183 237 -186 16 -6 36 18
257 305 l155 201 64 -63 c36 -34 69 -66 73 -72z m-2062 -27 c0 -4 -19 -20 -42
-35 -24 -14 -69 -51 -100 -80 l-56 -55 -17 26 c-15 22 -15 29 -4 44 36 47 68
76 110 97 25 13 51 31 59 40 13 15 15 15 32 -7 9 -13 18 -26 18 -30z m19 -110
c20 -23 155 -184 301 -358 146 -175 331 -396 413 -493 81 -96 147 -178 147
-182 0 -10 -80 -105 -89 -105 -4 0 -70 75 -147 168 -160 190 -423 506 -631
756 -79 94 -141 176 -140 181 5 13 86 75 99 75 6 0 27 -19 47 -42z m404 -357
c65 -32 164 -61 207 -61 24 0 27 -5 38 -59 7 -34 26 -80 45 -108 35 -52 137
-129 160 -120 10 4 17 29 22 81 11 126 50 165 195 196 52 11 128 32 168 46 73
27 74 27 94 7 19 -20 19 -20 -88 -159 -59 -76 -131 -168 -159 -204 -29 -36
-85 -108 -124 -160 -40 -52 -76 -95 -81 -95 -4 0 -70 74 -146 165 -489 583
-482 575 -426 528 18 -15 60 -40 95 -57z m-427 -386 c30 -29 101 -94 309 -284
l99 -90 65 110 c36 60 69 108 73 106 3 -1 56 -62 117 -136 l110 -134 -97 -126
c-53 -69 -144 -187 -202 -261 -58 -74 -127 -165 -155 -202 -27 -37 -54 -66
-60 -64 -5 1 -14 28 -20 59 -5 30 -13 58 -16 61 -3 4 7 33 23 66 29 62 63 188
53 198 -3 3 -5 0 -5 -6 0 -23 -23 -11 -157 86 -75 53 -145 104 -157 112 -11 8
-57 42 -101 76 -44 33 -111 84 -150 114 -137 103 -128 91 -121 170 11 119 56
254 114 342 l25 38 111 -103 c61 -56 125 -115 142 -132z m1256 -726 c112 -133
258 -307 326 -387 67 -80 120 -147 118 -149 -2 -2 -44 11 -92 30 -49 19 -108
40 -130 46 -38 10 -62 36 -283 301 -155 185 -239 295 -235 303 17 28 77 97 85
97 4 0 100 -109 211 -241z m-230 -4 c244 -291 358 -431 358 -436 0 -3 -21 -2
-47 2 -53 8 -128 -3 -170 -25 -16 -8 -66 -46 -113 -85 -47 -39 -88 -71 -92
-71 -9 0 -125 87 -181 137 -71 62 -134 76 -234 50 -39 -10 -50 -11 -45 -2 22
38 427 535 433 533 4 -2 45 -48 91 -103z m-329 -459 c18 -7 56 -35 86 -60 29
-26 82 -67 117 -92 l64 -46 42 33 c24 18 67 55 97 81 88 77 177 94 325 63 86
-18 107 -26 386 -141 128 -53 247 -96 277 -100 59 -7 71 -27 48 -78 -26 -60
-25 -59 -106 -32 -86 28 -183 37 -291 25 -75 -9 -80 -8 -220 38 -119 38 -157
46 -223 47 -69 1 -85 -2 -112 -22 -24 -17 -33 -31 -33 -51 0 -52 -20 -89 -53
-101 -18 -7 -77 -14 -132 -17 -127 -7 -170 8 -180 60 -4 20 -21 48 -39 66 -31
30 -35 31 -126 32 -94 1 -96 1 -230 -56 -167 -71 -388 -153 -421 -156 -61 -5
-66 -2 -114 89 -26 48 -47 91 -48 95 -1 5 30 17 70 27 41 11 149 57 250 108
365 183 485 223 566 188z m717 -313 c47 -13 107 -31 134 -40 l49 -16 -120 -38
c-66 -21 -210 -72 -318 -114 -250 -97 -318 -118 -377 -116 -70 1 -189 28 -318
71 -105 35 -250 95 -250 104 0 2 19 11 43 19 23 9 96 38 162 66 113 48 125 51
206 51 85 0 88 -1 113 -31 14 -17 26 -39 26 -50 0 -59 50 -81 179 -82 103 0
194 23 215 56 8 12 18 41 22 64 7 48 18 60 70 78 40 14 42 13 164 -22z m580
-99 c72 -21 105 -38 163 -87 50 -42 58 -70 25 -91 -13 -8 -21 -6 -36 7 -22 20
-51 22 -87 5 l-25 -11 0 -169 c0 -183 2 -176 -60 -157 -19 6 -76 11 -125 11
-135 0 -269 -36 -665 -176 -381 -136 -514 -168 -695 -167 -66 0 -144 5 -172
10 -72 14 -149 52 -144 71 1 8 4 55 6 103 2 70 7 94 22 115 41 55 113 55 132
1 6 -18 11 -70 11 -116 l0 -84 38 3 37 3 2 104 c0 57 -4 117 -9 133 -23 66
-124 89 -191 43 -31 -20 -38 -22 -45 -9 -6 10 -17 12 -40 8 l-32 -6 0 -129 c0
-75 -4 -129 -9 -129 -6 0 -33 17 -60 38 l-51 37 0 218 0 219 52 -47 c60 -54
101 -77 180 -100 61 -17 188 -22 279 -10 133 17 448 111 684 205 407 162 634
205 815 154z m208 -408 c-3 -178 -8 -191 -64 -165 l-29 14 -3 155 -2 155 50 0
50 0 -2 -159z"/>
<path d="M2970 858 c-37 -19 -46 -30 -53 -60 -6 -23 -16 -40 -28 -43 -28 -9
-23 -60 6 -60 19 0 20 -8 23 -122 l3 -123 39 0 40 0 0 129 0 130 28 3 c23 3
27 8 27 33 0 27 -3 30 -27 27 -39 -5 -37 23 2 43 21 11 30 23 30 40 0 32 -30
33 -90 3z"/>
<path d="M2517 696 c-78 -28 -147 -110 -147 -175 0 -36 30 -89 62 -112 91 -65
248 -28 298 71 l21 40 -43 -7 c-27 -4 -53 -17 -70 -33 -46 -47 -130 -47 -164
-2 -16 21 -18 73 -3 105 22 48 123 74 165 42 24 -19 104 -20 104 -2 0 18 -49
64 -83 76 -38 15 -94 13 -140 -3z"/>
<path d="M1970 561 c-165 -50 -215 -222 -88 -302 28 -17 45 -20 109 -16 69 3
81 7 118 36 36 29 71 76 71 96 0 16 -79 -11 -106 -37 -26 -24 -41 -30 -82 -31
-81 -3 -121 54 -88 125 31 64 112 87 170 49 21 -14 39 -18 65 -14 47 7 47 8
27 39 -33 49 -127 76 -196 55z"/>
</g>
</svg>
